<?xml version="1.0" encoding="UTF-8" standalone="no"?>
<!-- Created with Inkscape (http://www.inkscape.org/) -->

<svg
   xmlns:dc="http://purl.org/dc/elements/1.1/"
   xmlns:cc="http://creativecommons.org/ns#"
   xmlns:rdf="http://www.w3.org/1999/02/22-rdf-syntax-ns#"
   xmlns:svg="http://www.w3.org/2000/svg"
   xmlns="http://www.w3.org/2000/svg"
   xmlns:sodipodi="http://sodipodi.sourceforge.net/DTD/sodipodi-0.dtd"
   xmlns:inkscape="http://www.inkscape.org/namespaces/inkscape"
   width="17.295185mm"
   height="10.90085mm"
   viewBox="0 0 17.295185 10.90085"
   version="1.1"
   id="svg8"
   inkscape:version="0.92.3 (2405546, 2018-03-11)"
   sodipodi:docname="shepherd2.svg">
  <defs
     id="defs2" />
  <sodipodi:namedview
     id="base"
     pagecolor="#ffffff"
     bordercolor="#666666"
     borderopacity="1.0"
     inkscape:pageopacity="0.0"
     inkscape:pageshadow="2"
     inkscape:zoom="8.3373582"
     inkscape:cx="32.683798"
     inkscape:cy="20.600014"
     inkscape:document-units="mm"
     inkscape:current-layer="layer1"
     showgrid="false"
     inkscape:window-width="1600"
     inkscape:window-height="837"
     inkscape:window-x="-8"
     inkscape:window-y="-8"
     inkscape:window-maximized="1"
     fit-margin-top="0"
     fit-margin-left="0"
     fit-margin-right="0"
     fit-margin-bottom="0" />
  <metadata
     id="metadata5">
    <rdf:RDF>
      <cc:Work
         rdf:about="">
        <dc:format>image/svg+xml</dc:format>
        <dc:type
           rdf:resource="http://purl.org/dc/dcmitype/StillImage" />
        <dc:title />
      </cc:Work>
    </rdf:RDF>
  </metadata>
  <g
     inkscape:label="Ebene 1"
     inkscape:groupmode="layer"
     id="layer1"
     transform="translate(-107.82943,-246.95819)">
    <g
       id="g870">
      <path
         id="path1219-4-0-9-1-0-4-6"
         d="m 119.63051,256.61603 a 1.3673223,1.2430203 0 0 0 1.36732,1.24302 1.3673223,1.2430203 0 0 0 1.36733,-1.24302 1.3673223,1.2430203 0 0 0 -1.36733,-1.24302 1.3673223,1.2430203 0 0 0 -1.36732,1.24302 z"
         style="fill:#000000;fill-opacity:1;stroke:none;stroke-width:0;stroke-miterlimit:4;stroke-dasharray:none;stroke-opacity:1"
         inkscape:connector-curvature="0" />
      <path
         sodipodi:nodetypes="sccccs"
         inkscape:connector-curvature="0"
         id="rect1061-9-4-5-3-83-9-8-0-8-8-0-8"
         d="m 121.01808,257.14337 c -0.96591,0 -1.5875,-0.002 -1.74349,-0.47405 l -0.7708,-1.51792 5.05022,-0.0622 -0.79238,1.58008 c -0.14416,0.47294 -0.77764,0.47405 -1.74355,0.47405 z"
         style="fill:#000000;fill-opacity:1;stroke:none;stroke-width:0;stroke-miterlimit:4;stroke-dasharray:none;stroke-opacity:1" />
      <path
         sodipodi:nodetypes="sccccs"
         inkscape:connector-curvature="0"
         id="rect1061-9-4-5-3-83-9-8-2-4-7-6"
         d="m 121.02178,256.87715 c -0.63526,0 -1.04407,-10e-4 -1.14666,-0.29149 l -0.50695,-0.93336 3.32145,-0.0382 -0.52113,0.97158 c -0.0948,0.29081 -0.51144,0.29149 -1.14671,0.29149 z"
         style="fill:#322800;fill-opacity:1;stroke:none;stroke-width:0;stroke-miterlimit:4;stroke-dasharray:none;stroke-opacity:1" />
      <path
         id="path1057-5-0"
         d="m 124.1302,253.58186 a 6.9609141,4.1330428 0 0 1 -6.96091,4.13305 6.9609141,4.1330428 0 0 1 -6.96092,-4.13305 6.9609141,4.1330428 0 0 1 6.96092,-4.13304 6.9609141,4.1330428 0 0 1 6.96091,4.13304 z"
         style="fill:#000000;fill-opacity:0.65727701;stroke:none;stroke-width:0;stroke-miterlimit:4;stroke-dasharray:none;stroke-opacity:1"
         inkscape:connector-curvature="0" />
      <path
         sodipodi:nodetypes="cccccc"
         inkscape:connector-curvature="0"
         id="path885-1-3-6-8"
         d="m 114.2945,254.98794 -3.34433,-2.21788 -2.43213,-1.61285 3.62121,-2.34614 0.49974,1.26404 z"
         style="fill:#020101;fill-opacity:1;stroke:none;stroke-width:0;stroke-miterlimit:4;stroke-dasharray:none;stroke-opacity:1" />
      <path
         sodipodi:nodetypes="cccccc"
         inkscape:connector-curvature="0"
         id="path885-2-0-1"
         d="m 113.36597,253.87236 -2.52848,-1.73378 -1.83881,-1.2608 2.73781,-1.83404 0.37783,0.98813 z"
         style="fill:#4a2a16;fill-opacity:1;stroke:none;stroke-width:0;stroke-miterlimit:4;stroke-dasharray:none;stroke-opacity:1" />
      <path
         id="path889-77-7-4-4"
         d="m 112.27753,248.75269 a 1.917709,2.3327155 70.606089 0 0 -2.92717,-0.87492 1.917709,2.3327155 70.606089 0 0 -1.38774,2.64173 1.917709,2.3327155 70.606089 0 0 2.92717,0.87491 1.917709,2.3327155 70.606089 0 0 1.38774,-2.64172 z"
         style="fill:#020101;fill-opacity:1;stroke:none;stroke-width:0;stroke-miterlimit:4;stroke-dasharray:none;stroke-opacity:1"
         inkscape:connector-curvature="0" />
      <path
         id="path889-1-8-7"
         d="m 111.7512,248.9455 a 1.4926432,1.7713038 67.053376 0 0 -2.21307,-0.68395 1.4926432,1.7713038 67.053376 0 0 -1.0492,2.06511 1.4926432,1.7713038 67.053376 0 0 2.21308,0.68395 1.4926432,1.7713038 67.053376 0 0 1.04919,-2.06511 z"
         style="fill:#784421;fill-opacity:1;stroke:none;stroke-width:0;stroke-miterlimit:4;stroke-dasharray:none;stroke-opacity:1"
         inkscape:connector-curvature="0" />
      <path
         id="path889-7-1-9-3"
         d="m 111.37295,249.10564 a 1.1465012,1.3605405 67.053376 0 0 -1.69987,-0.52534 1.1465012,1.3605405 67.053376 0 0 -0.80589,1.58622 1.1465012,1.3605405 67.053376 0 0 1.69987,0.52534 1.1465012,1.3605405 67.053376 0 0 0.80589,-1.58622 z"
         style="fill:#502c17;fill-opacity:1;stroke:none;stroke-width:0;stroke-miterlimit:4;stroke-dasharray:none;stroke-opacity:1"
         inkscape:connector-curvature="0" />
      <path
         id="path889-7-6-6-7-5"
         d="m 111.13189,249.27591 a 0.80035895,0.94977731 67.053376 0 0 -1.18666,-0.36674 0.80035895,0.94977731 67.053376 0 0 -0.56258,1.10732 0.80035895,0.94977731 67.053376 0 0 1.18665,0.36673 0.80035895,0.94977731 67.053376 0 0 0.56259,-1.10731 z"
         style="fill:#784421;fill-opacity:1;stroke:none;stroke-width:0;stroke-miterlimit:4;stroke-dasharray:none;stroke-opacity:1"
         inkscape:connector-curvature="0" />
      <path
         sodipodi:nodetypes="sssss"
         inkscape:connector-curvature="0"
         id="path1097-9-5-7-3-0"
         d="m 113.42431,249.96397 c 0,1.01447 0.69894,1.83687 1.56112,1.83687 0.86218,0 1.56111,-0.8224 1.56111,-1.83687 0,-1.01447 -0.64002,-3.00578 -1.5022,-3.00578 -0.86218,0 -1.62003,1.99131 -1.62003,3.00578 z"
         style="fill:#000000;fill-opacity:1;stroke:none;stroke-width:0;stroke-miterlimit:4;stroke-dasharray:none;stroke-opacity:1" />
      <path
         sodipodi:nodetypes="sccccs"
         inkscape:connector-curvature="0"
         id="rect1061-9-4-3-2-7-5-1"
         d="m 114.96339,249.21249 c 1.05094,0 1.72725,0.004 1.89697,0.98395 l 0.56817,3.27967 h -4.88621 l 0.52402,-3.27967 c 0.15686,-0.98164 0.8461,-0.98395 1.89705,-0.98395 z"
         style="fill:#000000;fill-opacity:1;stroke:none;stroke-width:0;stroke-miterlimit:4;stroke-dasharray:none;stroke-opacity:1" />
      <path
         sodipodi:nodetypes="sccccs"
         inkscape:connector-curvature="0"
         id="rect1061-9-4-3-2-4-3-0-9"
         d="m 114.96968,249.82109 c 0.75091,0 1.23415,0.003 1.35541,0.70305 l 0.40597,2.34337 h -3.49127 l 0.37442,-2.34337 c 0.11208,-0.7014 0.60455,-0.70305 1.35547,-0.70305 z"
         style="fill:#322800;fill-opacity:1;stroke:none;stroke-width:0;stroke-miterlimit:4;stroke-dasharray:none;stroke-opacity:1" />
      <path
         id="rect815-9-6"
         d="m 122.51427,250.9684 h -9.1362 c -1.44613,0 -2.61034,1.16421 -2.61034,2.61034 0,1.44613 1.16421,2.61034 2.61034,2.61034 h 9.1362 c 1.44613,0 2.61034,-1.16421 2.61034,-2.61034 0,-1.44613 -1.16421,-2.61034 -2.61034,-2.61034 z"
         style="fill:#000000;fill-opacity:1;stroke:#000000;stroke-width:0;stroke-miterlimit:4;stroke-dasharray:none;stroke-opacity:1"
         inkscape:connector-curvature="0" />
      <path
         id="rect815-0-9-0"
         d="m 122.56162,251.48189 h -9.23091 c -1.16166,0 -2.09685,0.9352 -2.09685,2.09685 0,1.16166 0.93519,2.09686 2.09685,2.09686 h 9.23091 c 1.16166,0 2.09686,-0.9352 2.09686,-2.09686 0,-1.16165 -0.9352,-2.09685 -2.09686,-2.09685 z"
         style="fill:#8f753a;fill-opacity:1;stroke:#000000;stroke-width:0;stroke-miterlimit:4;stroke-dasharray:none;stroke-opacity:1"
         inkscape:connector-curvature="0" />
      <path
         id="path832-40-7"
         d="m 113.5956,253.27112 a 4.3505712,4.3505712 0 0 0 4.35057,4.35057 4.3505712,4.3505712 0 0 0 4.35057,-4.35057 4.3505712,4.3505712 0 0 0 -4.35057,-4.35057 4.3505712,4.3505712 0 0 0 -4.35057,4.35057 z"
         style="fill:#000000;fill-opacity:1;stroke:#000000;stroke-width:0;stroke-miterlimit:4;stroke-dasharray:none;stroke-opacity:1"
         inkscape:connector-curvature="0" />
      <path
         id="path832-41-0-2-4"
         d="m 114.15496,253.27112 a 3.7912118,3.7912118 0 0 0 3.79121,3.79121 3.7912118,3.7912118 0 0 0 3.79121,-3.79121 3.7912118,3.7912118 0 0 0 -3.79121,-3.79121 3.7912118,3.7912118 0 0 0 -3.79121,3.79121 z"
         style="fill:#141414;fill-opacity:1;stroke:#000000;stroke-width:0;stroke-miterlimit:4;stroke-dasharray:none;stroke-opacity:1"
         inkscape:connector-curvature="0" />
      <path
         id="path832-4-0-9"
         d="m 115.27367,253.27112 a 2.6724935,2.6724935 0 0 0 2.6725,2.67249 2.6724935,2.6724935 0 0 0 2.67249,-2.67249 2.6724935,2.6724935 0 0 0 -2.67249,-2.6725 2.6724935,2.6724935 0 0 0 -2.6725,2.6725 z"
         style="fill:#454545;fill-opacity:1;stroke:none;stroke-width:0;stroke-miterlimit:4;stroke-dasharray:none;stroke-opacity:1"
         inkscape:connector-curvature="0" />
      <path
         id="path832-41-09-4"
         d="m 115.89518,253.27112 a 2.0509834,2.0509834 0 0 0 2.05099,2.05098 2.0509834,2.0509834 0 0 0 2.05098,-2.05098 2.0509834,2.0509834 0 0 0 -2.05098,-2.05099 2.0509834,2.0509834 0 0 0 -2.05099,2.05099 z"
         style="fill:#141414;fill-opacity:1;stroke:#000000;stroke-width:0;stroke-miterlimit:4;stroke-dasharray:none;stroke-opacity:1"
         inkscape:connector-curvature="0" />
    </g>
  </g>
</svg>
