<?xml version="1.0" encoding="UTF-8" standalone="no"?>
<!-- Created with Inkscape (http://www.inkscape.org/) -->

<svg
   xmlns:dc="http://purl.org/dc/elements/1.1/"
   xmlns:cc="http://creativecommons.org/ns#"
   xmlns:rdf="http://www.w3.org/1999/02/22-rdf-syntax-ns#"
   xmlns:svg="http://www.w3.org/2000/svg"
   xmlns="http://www.w3.org/2000/svg"
   xmlns:sodipodi="http://sodipodi.sourceforge.net/DTD/sodipodi-0.dtd"
   xmlns:inkscape="http://www.inkscape.org/namespaces/inkscape"
   width="27"
   height="106"
   viewBox="0 0 7.1437498 28.045834"
   version="1.1"
   id="svg8"
   sodipodi:docname="dog2.svg"
   inkscape:version="0.92.3 (2405546, 2018-03-11)">
  <defs
     id="defs2" />
  <sodipodi:namedview
     id="base"
     pagecolor="#ffffff"
     bordercolor="#666666"
     borderopacity="1.0"
     inkscape:pageopacity="0.0"
     inkscape:pageshadow="2"
     inkscape:zoom="2.6742759"
     inkscape:cx="-88.702392"
     inkscape:cy="65.85826"
     inkscape:document-units="px"
     inkscape:current-layer="layer1"
     showgrid="false"
     units="px"
     inkscape:window-width="1600"
     inkscape:window-height="837"
     inkscape:window-x="-8"
     inkscape:window-y="-8"
     inkscape:window-maximized="1"
     showguides="false"
     fit-margin-top="0"
     fit-margin-left="0"
     fit-margin-right="0"
     fit-margin-bottom="0" />
  <metadata
     id="metadata5">
    <rdf:RDF>
      <cc:Work
         rdf:about="">
        <dc:format>image/svg+xml</dc:format>
        <dc:type
           rdf:resource="http://purl.org/dc/dcmitype/StillImage" />
        <dc:title></dc:title>
      </cc:Work>
    </rdf:RDF>
  </metadata>
  <g
     inkscape:label="Ebene 1"
     inkscape:groupmode="layer"
     id="layer1"
     transform="translate(-82.068931,-118.70571)">
    <g
       id="g1849"
       transform="matrix(2.7037118,0,0,2.3933833,-72.796047,-215.31005)">
      <path
         id="path872-2-3"
         d="m 58.599502,141.34696 c -0.822868,0 -1.179769,0.72958 -1.179772,1.62884 -5e-6,0.33327 0.04986,0.64266 0.15348,0.90072 0.0043,0.17578 0.01762,0.34514 0.04806,0.50022 -0.233793,0.33208 -0.342611,0.80273 -0.342614,1.32602 -2e-6,0.63854 0.161602,1.0551 0.515213,1.27486 -0.190204,0.73011 -0.105421,1.18959 -0.105421,1.18959 l 0.184486,-0.29404 c 0,0 -0.04521,1.0727 0.325562,1.86862 0.514789,1.10505 1.156518,1.53427 1.156518,1.53427 l -0.160198,-1.63039 0.155546,0.28009 c 0,0 0.07993,-0.41036 -0.07183,-0.87075 -0.128537,-0.38995 -0.37977,-0.84924 -0.433049,-1.26659 -0.02931,-0.22961 -0.01363,-0.44294 0.01704,-0.64027 0.732269,-0.085 1.058336,-0.54299 1.058334,-1.44539 -3e-6,-0.52334 -0.10989,-0.99394 -0.343646,-1.32602 0.03041,-0.15509 0.04425,-0.32444 0.04857,-0.50022 0.103564,-0.25806 0.152961,-0.56745 0.152961,-0.90072 -2e-6,-0.89926 -0.356385,-1.62884 -1.179255,-1.62884 z"
         style="fill:#000000;fill-opacity:0.58823529;stroke:none;stroke-width:0;stroke-linecap:butt;stroke-linejoin:miter;stroke-miterlimit:4;stroke-dasharray:none;stroke-opacity:1"
         inkscape:connector-curvature="0" />
      <path
         sodipodi:nodetypes="szsss"
         inkscape:connector-curvature="0"
         id="path817-2-3"
         d="m 59.160096,140.2054 c 0.10998,0.47956 0.0236,0.85599 -0.490749,0.86834 -0.514337,0.0123 -0.585013,-0.38878 -0.49075,-0.86834 0.09377,-0.47709 0.219715,-0.64741 0.49075,-0.64741 0.271033,0 0.381544,0.1712 0.490749,0.64741 z"
         style="fill:#000000;fill-opacity:0.58823529;stroke:none;stroke-width:0;stroke-miterlimit:4;stroke-dasharray:none;stroke-opacity:1" />
      <path
         sodipodi:nodetypes="cccccccccccscccccccccccscccccccccccc"
         inkscape:connector-curvature="0"
         id="path820-5-8-6"
         d="m 58.701863,139.63219 c -0.18207,0 -0.333695,0.1858 -0.378788,0.67903 -0.113038,0.0658 -0.199776,0.16231 -0.262517,0.28164 l -0.316259,0.37 v 1.00769 l 0.265618,-0.31006 c 0.01685,0.0463 0.03671,0.0896 0.05943,0.13074 l -0.0057,0.0997 c -0.288737,0.25949 -0.421161,0.71253 -0.421161,1.22938 -3e-6,0.29905 0.04442,0.57672 0.137459,0.80822 0.0039,0.15763 0.01608,0.3095 0.04341,0.44855 -0.209408,0.29776 -0.307473,0.71957 -0.307475,1.18856 -3e-6,0.71699 0.231597,1.11835 0.740005,1.2547 -0.128072,0.11614 -0.29109,0.22282 -0.396357,0.51935 -0.231912,0.65329 -0.132291,1.06557 -0.132291,1.06557 l 0.198437,-0.24856 c 0,0 -0.0483,0.90714 0.350367,1.58026 0.553516,0.93456 1.243335,1.29708 1.243332,1.29708 l -0.172082,-1.37821 0.166915,0.23668 c 0,0 0.08566,-0.34703 -0.07752,-0.73639 -0.138208,-0.32979 -0.4078,-0.71778 -0.465087,-1.07074 -0.08861,-0.54598 0.183343,-0.99713 0.208775,-1.2733 0.48455,-0.14518 0.704868,-0.54557 0.704865,-1.24644 -2e-6,-0.4693 -0.09837,-0.89128 -0.30799,-1.18907 0.02733,-0.13938 0.0401,-0.29158 0.04392,-0.44959 0.09259,-0.2312 0.137459,-0.50825 0.137459,-0.80667 -3e-6,-0.51521 -0.131313,-0.96742 -0.418063,-1.22731 l -0.0057,-0.10284 c 0.02422,-0.044 0.04501,-0.0907 0.06253,-0.14056 l 0.274918,0.32091 v -1.00769 c -0.07536,-0.1052 -0.281012,-0.31449 -0.324011,-0.35969 -0.0631,-0.12414 -0.151363,-0.22422 -0.267685,-0.29197 -0.04509,-0.49323 -0.196717,-0.67903 -0.378788,-0.67903 z"
         style="opacity:1;vector-effect:none;fill:#000000;fill-opacity:1;stroke:none;stroke-width:0;stroke-linecap:butt;stroke-linejoin:miter;stroke-miterlimit:4;stroke-dasharray:none;stroke-dashoffset:0;stroke-opacity:1" />
      <path
         sodipodi:nodetypes="sccccccs"
         inkscape:connector-curvature="0"
         id="path989-8"
         d="m 58.520418,149.55354 c 0.351247,0.58089 0.600246,0.73504 0.600246,0.73504 l -0.111482,-1.03494 0.173586,0.13486 c -0.01699,-0.17105 -0.09955,-0.32881 -0.194256,-0.45932 l -0.214574,0.39877 -0.51001,-0.46497 c 0,0 0.05231,0.35289 0.25649,0.69056 z"
         style="fill:#ffffff;fill-opacity:1;stroke:none;stroke-width:0;stroke-linecap:butt;stroke-linejoin:miter;stroke-miterlimit:4;stroke-dasharray:none;stroke-opacity:1" />
      <path
         sodipodi:nodetypes="cccscccccc"
         inkscape:connector-curvature="0"
         id="path991-4"
         d="m 58.212022,148.49934 0.466023,0.43213 0.177936,-0.24572 c 0,0 -0.220864,-0.6385 -0.194882,-0.96594 0.01979,-0.24946 0.262665,-0.78271 0.262665,-0.78271 l -0.499914,0.008 c -0.270371,0.18415 -0.416554,0.46098 -0.525333,0.97759 l 0.254193,-0.19485 c -0.0571,0.29479 -0.01331,0.54394 0.05931,0.7715 z"
         style="fill:#6e3711;fill-opacity:1;stroke:none;stroke-width:0;stroke-linecap:butt;stroke-linejoin:miter;stroke-miterlimit:4;stroke-dasharray:none;stroke-opacity:1" />
      <path
         transform="scale(0.26458333)"
         id="path820-5-3-6-0"
         d="m 221.39648,528.91992 c -0.106,0.23638 -0.18454,0.56454 -0.22851,1.02735 -0.0356,0.37407 -0.08,0.70578 -0.0898,1 a 2.2710054,2.8985199 0 0 0 -0.21289,0.12109 c 0.47036,0.0119 0.87116,0.22683 1.15039,0.50781 0.23097,-0.23434 0.55544,-0.42028 0.92969,-0.48437 a 2.2710054,2.8985199 0 0 0 -0.22656,-0.13282 c -0.008,-0.30029 -0.0537,-0.63864 -0.0898,-1.01171 -0.0449,-0.46208 -0.11604,-0.79082 -0.21485,-1.02735 a 0.78427711,0.45850414 0 0 1 -0.50976,0.10938 0.78427711,0.45850414 0 0 1 -0.50782,-0.10938 z m -2.08398,3.64649 -0.41406,0.4082 v 1.83398 l 0.47461,-0.45703 0.31836,-0.83984 -0.0293,0.70312 a 2.2710054,2.8985199 0 0 0 0.77344,1.66211 l -0.19336,1.08789 c -1.02366,0.72571 -1.5,2.15875 -1.5,3.83008 -1e-5,1.03572 0.18969,1.97455 0.56836,2.7207 -0.006,0.18414 -0.0117,0.36705 -0.0117,0.5586 -10e-6,0.35639 0.0265,0.69548 0.0664,1.02344 l 0.78125,0.63086 -0.5371,0.50781 c 6.5e-4,0.002 0.001,0.004 0.002,0.006 -0.93208,0.90227 -1.36132,2.41931 -1.36133,4.14062 -1e-5,2.76779 1.10208,4.02735 3.63867,4.02735 2.53659,0 3.63478,-1.25956 3.63477,-4.02735 -10e-6,-1.7213 -0.42757,-3.23835 -1.35938,-4.14062 4.6e-4,-0.001 0.001,-0.003 0.002,-0.004 l -0.50391,-0.47266 0.74414,-0.60156 c 0.0454,-0.34681 0.0703,-0.71033 0.0703,-1.08984 0,-0.19154 -0.006,-0.37447 -0.0117,-0.5586 0.37836,-0.74609 0.56836,-1.68519 0.56836,-2.7207 0,-1.67214 -0.47587,-3.10668 -1.5,-3.83203 l -0.19336,-1.08398 a 2.2710054,2.8985199 0 0 0 0.72461,-1.41602 l -0.0391,-0.95117 0.32422,0.85351 0.46094,0.44336 v -1.83398 l -0.21289,-0.20899 c -0.26614,0.26405 -0.77717,0.39063 -1.3711,0.39063 -0.48586,0 -0.91401,-0.0853 -1.20117,-0.25977 -0.28764,0.17464 -0.71533,0.25977 -1.20117,0.25977 -0.72749,0 -1.33458,-0.18813 -1.51172,-0.58984 z"
         style="opacity:1;vector-effect:none;fill:#6e3711;fill-opacity:1;stroke:none;stroke-width:0;stroke-linecap:butt;stroke-linejoin:miter;stroke-miterlimit:4;stroke-dasharray:none;stroke-dashoffset:0;stroke-opacity:1"
         inkscape:connector-curvature="0" />
      <path
         sodipodi:nodetypes="sccccssscsssssscccsccs"
         inkscape:connector-curvature="0"
         id="path1299-2"
         d="m 58.5995,141.34695 c -0.08108,0.009 -0.218019,0.11122 -0.218019,0.11122 l 0.177964,0.37836 -0.0817,0.42482 -0.212411,0.13071 c 0,0 -0.134444,0.36219 -0.148542,0.55232 -0.01792,0.24164 0.04855,0.48232 0.08319,0.72214 0.01818,0.12584 0.0122,0.2603 0.06536,0.3758 0.06793,0.1476 0.310444,0.3758 0.310444,0.3758 0,0 -0.359156,0.30136 -0.457496,0.50652 -0.133524,0.27857 -0.203686,0.61132 -0.147056,0.915 0.04161,0.22314 0.145151,0.47716 0.343125,0.58821 0.232807,0.13058 0.587531,0.14446 0.800621,-0.0163 0.177413,-0.13384 0.172798,-0.41621 0.196072,-0.63723 0.02577,-0.2447 0.0043,-0.49927 -0.06536,-0.73526 -0.09584,-0.3248 -0.473837,-0.89866 -0.473837,-0.89866 l 0.277768,-0.0654 0.08169,-0.40848 c 0,0 0.20313,-0.47771 0.167108,-0.72214 -0.04191,-0.28439 -0.428535,-0.74839 -0.428535,-0.74839 l 0.164021,-0.73782 c 0,0 -0.285846,-0.12771 -0.434407,-0.11122 z"
         style="fill:#4c270c;fill-opacity:1;stroke:none;stroke-width:0;stroke-linecap:butt;stroke-linejoin:miter;stroke-miterlimit:4;stroke-dasharray:none;stroke-opacity:1" />
      <path
         sodipodi:nodetypes="cccccccsc"
         inkscape:connector-curvature="0"
         id="path1301-1"
         d="m 58.686776,140.04977 c -0.04628,0.004 -0.05317,0.14105 -0.05317,0.14105 l 0.03174,0.0735 -0.0529,0.17438 0.106057,-0.0643 0.08481,0.0274 -0.02126,-0.26616 c 0,0 -2.5e-4,-0.086 -0.05326,-0.0858 z"
         style="fill:#4c270c;fill-opacity:1;stroke:none;stroke-width:0.15957999px;stroke-linecap:butt;stroke-linejoin:miter;stroke-opacity:1" />
      <path
         id="path1350-9-2-2"
         transform="scale(0.26458333)"
         d="m 221.18945,531.60547 a 0.45689892,0.45689892 0 0 1 0.004,0.0449 0.45689892,0.45689892 0 0 1 -0.45703,0.45703 0.45689892,0.45689892 0 0 1 -0.45703,-0.45703 0.45689892,0.45689892 0 0 1 0,-0.0195 0.79520505,0.42317692 0 0 0 -0.30469,0.33398 0.79520505,0.42317692 0 0 0 0.79492,0.42188 0.79520505,0.42317692 0 0 0 0.79492,-0.42188 0.79520505,0.42317692 0 0 0 -0.375,-0.35937 z"
         style="opacity:1;vector-effect:none;fill:#f9f9f9;fill-opacity:1;stroke:none;stroke-width:0;stroke-linecap:butt;stroke-linejoin:miter;stroke-miterlimit:4;stroke-dasharray:none;stroke-dashoffset:0;stroke-opacity:1"
         inkscape:connector-curvature="0" />
      <path
         id="path1350-9-2-6-2"
         transform="scale(0.26458333)"
         d="m 223.59375,531.60547 a 0.45689892,0.45689892 0 0 1 0.004,0.0449 0.45689892,0.45689892 0 0 1 -0.45704,0.45703 0.45689892,0.45689892 0 0 1 -0.45703,-0.45703 0.45689892,0.45689892 0 0 1 0,-0.0195 0.79520505,0.42317692 0 0 0 -0.30468,0.33398 0.79520505,0.42317692 0 0 0 0.79492,0.42188 0.79520505,0.42317692 0 0 0 0.79492,-0.42188 0.79520505,0.42317692 0 0 0 -0.375,-0.35937 z"
         style="opacity:1;vector-effect:none;fill:#f9f9f9;fill-opacity:1;stroke:none;stroke-width:0;stroke-linecap:butt;stroke-linejoin:miter;stroke-miterlimit:4;stroke-dasharray:none;stroke-dashoffset:0;stroke-opacity:1"
         inkscape:connector-curvature="0" />
    </g>
  </g>
</svg>
