<?xml version="1.0" encoding="UTF-8" standalone="no"?>
<!-- Created with Inkscape (http://www.inkscape.org/) -->

<svg
   xmlns:dc="http://purl.org/dc/elements/1.1/"
   xmlns:cc="http://creativecommons.org/ns#"
   xmlns:rdf="http://www.w3.org/1999/02/22-rdf-syntax-ns#"
   xmlns:svg="http://www.w3.org/2000/svg"
   xmlns="http://www.w3.org/2000/svg"
   xmlns:sodipodi="http://sodipodi.sourceforge.net/DTD/sodipodi-0.dtd"
   xmlns:inkscape="http://www.inkscape.org/namespaces/inkscape"
   width="17.295193mm"
   height="10.90085mm"
   viewBox="0 0 17.295193 10.90085"
   version="1.1"
   id="svg8"
   inkscape:version="0.92.3 (2405546, 2018-03-11)"
   sodipodi:docname="shepherd1.svg">
  <defs
     id="defs2" />
  <sodipodi:namedview
     id="base"
     pagecolor="#ffffff"
     bordercolor="#666666"
     borderopacity="1.0"
     inkscape:pageopacity="0.0"
     inkscape:pageshadow="2"
     inkscape:zoom="8.3373582"
     inkscape:cx="32.683814"
     inkscape:cy="20.600014"
     inkscape:document-units="mm"
     inkscape:current-layer="layer1"
     showgrid="false"
     inkscape:window-width="1600"
     inkscape:window-height="837"
     inkscape:window-x="-8"
     inkscape:window-y="-8"
     inkscape:window-maximized="1"
     fit-margin-top="0"
     fit-margin-left="0"
     fit-margin-right="0"
     fit-margin-bottom="0" />
  <metadata
     id="metadata5">
    <rdf:RDF>
      <cc:Work
         rdf:about="">
        <dc:format>image/svg+xml</dc:format>
        <dc:type
           rdf:resource="http://purl.org/dc/dcmitype/StillImage" />
        <dc:title />
      </cc:Work>
    </rdf:RDF>
  </metadata>
  <g
     inkscape:label="Ebene 1"
     inkscape:groupmode="layer"
     id="layer1"
     transform="translate(-83.173635,-246.95819)">
    <g
       id="g870">
      <path
         id="path1219-4-0-9-1-0-4"
         d="m 91.606054,256.61603 a 1.3673223,1.2430203 0 0 1 -1.367323,1.24302 1.3673223,1.2430203 0 0 1 -1.367322,-1.24302 1.3673223,1.2430203 0 0 1 1.367322,-1.24302 1.3673223,1.2430203 0 0 1 1.367323,1.24302 z"
         style="fill:#000000;fill-opacity:1;stroke:none;stroke-width:0;stroke-miterlimit:4;stroke-dasharray:none;stroke-opacity:1"
         inkscape:connector-curvature="0" />
      <path
         sodipodi:nodetypes="sccccs"
         inkscape:connector-curvature="0"
         id="rect1061-9-4-5-3-83-9-8-0-8-8-0"
         d="m 90.218473,257.14337 c 0.965909,0 1.587502,-0.002 1.743487,-0.47405 l 0.770805,-1.51792 -5.050222,-0.0622 0.792377,1.58008 c 0.144166,0.47294 0.777643,0.47405 1.743553,0.47405 z"
         style="fill:#000000;fill-opacity:1;stroke:none;stroke-width:0;stroke-miterlimit:4;stroke-dasharray:none;stroke-opacity:1" />
      <path
         sodipodi:nodetypes="sccccs"
         inkscape:connector-curvature="0"
         id="rect1061-9-4-5-3-83-9-8-2-4-7"
         d="m 90.214771,256.87715 c 0.635265,0 1.044076,-10e-4 1.146666,-0.29149 l 0.506947,-0.93336 -3.321454,-0.0382 0.521134,0.97158 c 0.09482,0.29081 0.511444,0.29149 1.146707,0.29149 z"
         style="fill:#322800;fill-opacity:1;stroke:none;stroke-width:0;stroke-miterlimit:4;stroke-dasharray:none;stroke-opacity:1" />
      <path
         id="path1057-5"
         d="m 99.474411,253.58188 a 6.9609141,4.1330428 0 0 1 -6.960915,4.13304 6.9609141,4.1330428 0 0 1 -6.960914,-4.13304 6.9609141,4.1330428 0 0 1 6.960914,-4.13304 6.9609141,4.1330428 0 0 1 6.960915,4.13304 z"
         style="fill:#000000;fill-opacity:0.65727701;stroke:none;stroke-width:0;stroke-miterlimit:4;stroke-dasharray:none;stroke-opacity:1"
         inkscape:connector-curvature="0" />
      <path
         sodipodi:nodetypes="cccccc"
         inkscape:connector-curvature="0"
         id="path885-1-3"
         d="m 89.638712,247.66834 -3.34433,2.21788 -2.43213,1.61285 3.621205,2.34614 0.499744,-1.26404 z"
         style="fill:#020101;fill-opacity:1;stroke:none;stroke-width:0;stroke-miterlimit:4;stroke-dasharray:none;stroke-opacity:1" />
      <path
         sodipodi:nodetypes="cccccc"
         inkscape:connector-curvature="0"
         id="path885-2"
         d="m 88.710184,248.78393 -2.528475,1.73378 -1.838808,1.2608 2.737806,1.83404 0.377831,-0.98813 z"
         style="fill:#4a2a16;fill-opacity:1;stroke:none;stroke-width:0;stroke-miterlimit:4;stroke-dasharray:none;stroke-opacity:1" />
      <path
         id="path889-77-7"
         d="m 87.621733,253.90359 a 2.3327155,1.917709 19.393911 0 1 -2.927168,0.87491 2.3327155,1.917709 19.393911 0 1 -1.387735,-2.64173 2.3327155,1.917709 19.393911 0 1 2.927168,-0.87492 2.3327155,1.917709 19.393911 0 1 1.387735,2.64174 z"
         style="fill:#020101;fill-opacity:1;stroke:none;stroke-width:0;stroke-miterlimit:4;stroke-dasharray:none;stroke-opacity:1"
         inkscape:connector-curvature="0" />
      <path
         id="path889-1"
         d="m 87.09541,253.71076 a 1.7713038,1.4926432 22.946624 0 1 -2.213079,0.68395 1.7713038,1.4926432 22.946624 0 1 -1.049199,-2.06512 1.7713038,1.4926432 22.946624 0 1 2.213085,-0.68394 1.7713038,1.4926432 22.946624 0 1 1.049193,2.06511 z"
         style="fill:#784421;fill-opacity:1;stroke:none;stroke-width:0;stroke-miterlimit:4;stroke-dasharray:none;stroke-opacity:1"
         inkscape:connector-curvature="0" />
      <path
         id="path889-7-1"
         d="m 86.717154,253.55062 a 1.3605405,1.1465012 22.946624 0 1 -1.699872,0.52534 1.3605405,1.1465012 22.946624 0 1 -0.805884,-1.58622 1.3605405,1.1465012 22.946624 0 1 1.699868,-0.52534 1.3605405,1.1465012 22.946624 0 1 0.805888,1.58622 z"
         style="fill:#502c17;fill-opacity:1;stroke:none;stroke-width:0;stroke-miterlimit:4;stroke-dasharray:none;stroke-opacity:1"
         inkscape:connector-curvature="0" />
      <path
         id="path889-7-6-6"
         d="m 86.476087,253.38036 a 0.94977731,0.80035895 22.946624 0 1 -1.186661,0.36673 0.94977731,0.80035895 22.946624 0 1 -0.562583,-1.10732 0.94977731,0.80035895 22.946624 0 1 1.186661,-0.36673 0.94977731,0.80035895 22.946624 0 1 0.562583,1.10732 z"
         style="fill:#784421;fill-opacity:1;stroke:none;stroke-width:0;stroke-miterlimit:4;stroke-dasharray:none;stroke-opacity:1"
         inkscape:connector-curvature="0" />
      <path
         sodipodi:nodetypes="sssss"
         inkscape:connector-curvature="0"
         id="path1097-9-5-7-3"
         d="m 97.812242,249.96397 c 0,1.01447 -0.698933,1.83687 -1.561114,1.83687 -0.86218,0 -1.561115,-0.8224 -1.561115,-1.83687 0,-1.01447 0.640025,-3.00578 1.502206,-3.00578 0.862179,0 1.620023,1.99131 1.620023,3.00578 z"
         style="fill:#000000;fill-opacity:1;stroke:none;stroke-width:0;stroke-miterlimit:4;stroke-dasharray:none;stroke-opacity:1" />
      <path
         sodipodi:nodetypes="sccccs"
         inkscape:connector-curvature="0"
         id="rect1061-9-4-3-2-7-5"
         d="m 96.273168,249.21249 c -1.050942,0 -1.727255,0.004 -1.896972,0.98395 l -0.568173,3.27967 h 4.886209 l -0.524021,-3.27967 c -0.156859,-0.98164 -0.846101,-0.98395 -1.897043,-0.98395 z"
         style="fill:#000000;fill-opacity:1;stroke:none;stroke-width:0;stroke-miterlimit:4;stroke-dasharray:none;stroke-opacity:1" />
      <path
         sodipodi:nodetypes="sccccs"
         inkscape:connector-curvature="0"
         id="rect1061-9-4-3-2-4-3-0"
         d="m 96.266876,249.82109 c -0.750914,0 -1.23415,0.003 -1.355415,0.70305 l -0.405967,2.34337 h 3.491268 l -0.37442,-2.34337 c -0.112077,-0.7014 -0.604552,-0.70305 -1.355466,-0.70305 z"
         style="fill:#322800;fill-opacity:1;stroke:none;stroke-width:0;stroke-miterlimit:4;stroke-dasharray:none;stroke-opacity:1" />
      <path
         id="rect815-9"
         d="m 88.722281,250.96841 h 9.1362 c 1.44613,0 2.610339,1.16422 2.610339,2.61035 0,1.44613 -1.164209,2.61034 -2.610339,2.61034 h -9.1362 c -1.44613,0 -2.610343,-1.16421 -2.610343,-2.61034 0,-1.44613 1.164213,-2.61035 2.610343,-2.61035 z"
         style="fill:#000000;fill-opacity:1;stroke:#000000;stroke-width:0;stroke-miterlimit:4;stroke-dasharray:none;stroke-opacity:1"
         inkscape:connector-curvature="0" />
      <path
         id="rect815-0-9"
         d="m 88.674928,251.4819 h 9.230908 c 1.161659,0 2.096854,0.9352 2.096854,2.09686 0,1.16166 -0.935195,2.09686 -2.096854,2.09686 h -9.230908 c -1.161658,0 -2.096856,-0.9352 -2.096856,-2.09686 0,-1.16166 0.935198,-2.09686 2.096856,-2.09686 z"
         style="fill:#8f753a;fill-opacity:1;stroke:#000000;stroke-width:0;stroke-miterlimit:4;stroke-dasharray:none;stroke-opacity:1"
         inkscape:connector-curvature="0" />
      <path
         id="path832-40"
         d="m 97.640954,253.27112 a 4.3505712,4.3505712 0 0 1 -4.350572,4.35057 4.3505712,4.3505712 0 0 1 -4.350571,-4.35057 4.3505712,4.3505712 0 0 1 4.350571,-4.35057 4.3505712,4.3505712 0 0 1 4.350572,4.35057 z"
         style="fill:#000000;fill-opacity:1;stroke:#000000;stroke-width:0;stroke-miterlimit:4;stroke-dasharray:none;stroke-opacity:1"
         inkscape:connector-curvature="0" />
      <path
         id="path832-41-0-2"
         d="m 97.081594,253.27112 a 3.7912118,3.7912118 0 0 1 -3.791212,3.79121 3.7912118,3.7912118 0 0 1 -3.791211,-3.79121 3.7912118,3.7912118 0 0 1 3.791211,-3.79121 3.7912118,3.7912118 0 0 1 3.791212,3.79121 z"
         style="fill:#141414;fill-opacity:1;stroke:#000000;stroke-width:0;stroke-miterlimit:4;stroke-dasharray:none;stroke-opacity:1"
         inkscape:connector-curvature="0" />
      <path
         id="path832-4-0"
         d="m 95.962876,253.27112 a 2.6724935,2.6724935 0 0 1 -2.672494,2.67249 2.6724935,2.6724935 0 0 1 -2.672493,-2.67249 2.6724935,2.6724935 0 0 1 2.672493,-2.6725 2.6724935,2.6724935 0 0 1 2.672494,2.6725 z"
         style="fill:#454545;fill-opacity:1;stroke:none;stroke-width:0;stroke-miterlimit:4;stroke-dasharray:none;stroke-opacity:1"
         inkscape:connector-curvature="0" />
      <path
         id="path832-41-09"
         d="m 95.341366,253.27112 a 2.0509834,2.0509834 0 0 1 -2.050984,2.05098 2.0509834,2.0509834 0 0 1 -2.050983,-2.05098 2.0509834,2.0509834 0 0 1 2.050983,-2.05099 2.0509834,2.0509834 0 0 1 2.050984,2.05099 z"
         style="fill:#141414;fill-opacity:1;stroke:#000000;stroke-width:0;stroke-miterlimit:4;stroke-dasharray:none;stroke-opacity:1"
         inkscape:connector-curvature="0" />
    </g>
  </g>
</svg>
