<?xml version="1.0" encoding="UTF-8" standalone="no"?>
<!-- Created with Inkscape (http://www.inkscape.org/) -->

<svg
   xmlns:dc="http://purl.org/dc/elements/1.1/"
   xmlns:cc="http://creativecommons.org/ns#"
   xmlns:rdf="http://www.w3.org/1999/02/22-rdf-syntax-ns#"
   xmlns:svg="http://www.w3.org/2000/svg"
   xmlns="http://www.w3.org/2000/svg"
   xmlns:sodipodi="http://sodipodi.sourceforge.net/DTD/sodipodi-0.dtd"
   xmlns:inkscape="http://www.inkscape.org/namespaces/inkscape"
   width="37.000015"
   height="59.000008"
   viewBox="0 0 9.7895879 15.610418"
   version="1.1"
   id="svg8"
   inkscape:version="0.92.3 (2405546, 2018-03-11)"
   sodipodi:docname="sheep.svg">
  <defs
     id="defs2" />
  <sodipodi:namedview
     id="base"
     pagecolor="#ffffff"
     bordercolor="#666666"
     borderopacity="1.0"
     inkscape:pageopacity="0.0"
     inkscape:pageshadow="2"
     inkscape:zoom="8.2659711"
     inkscape:cx="18.372629"
     inkscape:cy="29.384474"
     inkscape:document-units="mm"
     inkscape:current-layer="layer1"
     showgrid="false"
     inkscape:snap-nodes="false"
     inkscape:window-width="1600"
     inkscape:window-height="837"
     inkscape:window-x="-8"
     inkscape:window-y="-8"
     inkscape:window-maximized="1"
     fit-margin-top="0"
     fit-margin-left="0"
     fit-margin-right="0"
     fit-margin-bottom="0"
     units="px" />
  <metadata
     id="metadata5">
    <rdf:RDF>
      <cc:Work
         rdf:about="">
        <dc:format>image/svg+xml</dc:format>
        <dc:type
           rdf:resource="http://purl.org/dc/dcmitype/StillImage" />
        <dc:title></dc:title>
      </cc:Work>
    </rdf:RDF>
  </metadata>
  <g
     inkscape:label="Ebene 1"
     inkscape:groupmode="layer"
     id="layer1"
     transform="translate(-60.150811,-66.914222)">
    <path
       style="stroke-width:0.03754988"
       d="m 65.045638,66.914222 a 1.6645399,2.2819212 0 0 0 -1.66456,2.281932 1.6645399,2.2819212 0 0 0 4.99e-4,0.02014 1.4037683,0.83019581 23.822883 0 0 -0.997912,0.365586 1.4037683,0.83019581 23.822883 0 0 0.383106,0.971041 2.9425189,3.0804367 0 0 0 -0.28909,0.409902 2.2887424,2.2819212 0 0 0 -1.931532,2.252505 2.2887424,2.2819212 0 0 0 0.174377,0.868939 1.976641,1.97075 0 0 0 -0.569715,1.381866 1.976641,1.97075 0 0 0 0.632512,1.441638 2.2887421,2.2819209 0 0 0 -0.09153,0.632896 2.2887421,2.2819209 0 0 0 1.762133,2.218117 2.9129446,2.9042632 0 0 0 1.621392,1.357686 1.0403374,1.0372369 0 0 0 -0.07005,0.370904 1.0403374,1.0372369 0 0 0 1.040366,1.037266 1.0403374,1.0372369 0 0 0 1.040298,-1.037266 1.0403374,1.0372369 0 0 0 -0.07879,-0.393805 2.9129446,2.9042632 0 0 0 1.467281,-1.182623 3.0169784,3.2672958 0 0 0 2.465976,-3.210501 3.0169784,3.2672958 0 0 0 -0.833418,-2.252435 2.8089111,2.8005397 0 0 0 0.209227,-1.056341 2.8089111,2.8005397 0 0 0 -1.97463,-2.673964 2.9425189,3.0804367 0 0 0 -0.08534,-0.107847 0.83019581,1.4037683 66.177118 0 0 0.451307,-1.027978 0.83019581,1.4037683 66.177118 0 0 -0.998124,-0.365586 1.6645399,2.2819212 0 0 0 7.09e-4,-0.02014 1.6645399,2.2819212 0 0 0 -1.664489,-2.281932 z"
       id="path3715-4-2-1"
       inkscape:connector-curvature="0" />
    <path
       inkscape:connector-curvature="0"
       style="fill:#ffffff;fill-opacity:1;stroke-width:0.03002791"
       d="m 65.045638,67.416158 a 1.1871512,2.0460758 0 0 0 -1.184592,1.918756 1.4037682,0.83019581 23.822883 0 1 0.144011,0.05715 1.4037682,0.83019581 23.822883 0 1 0.58074,0.371896 2.6778974,2.8801691 0 0 1 0.396406,-0.03623 2.6778974,2.8801691 0 0 1 0.503648,0.05503 0.83019581,1.4037682 66.177118 0 1 0.600297,-0.390685 0.83019581,1.4037682 66.177118 0 1 0.142945,-0.05679 1.1871512,2.0460758 0 0 0 -1.183455,-1.919111 z"
       id="path3715-4-2-4-7" />
    <path
       inkscape:connector-curvature="0"
       style="fill:#f2f4f4;fill-opacity:1;stroke-width:0.03188069"
       d="m 64.995436,70.207545 a 2.5801973,2.7011328 0 0 0 -2.201558,1.298942 2.0069223,2.000941 0 0 0 -1.693699,1.975148 2.0069223,2.000941 0 0 0 0.15291,0.761943 1.7332509,1.7280853 0 0 0 -0.499567,1.211712 1.7332509,1.7280853 0 0 0 0.55463,1.264124 2.0069221,2.0009408 0 0 0 -0.08026,0.554967 2.0069221,2.0009408 0 0 0 1.545155,1.944994 2.5542645,2.546652 0 0 0 2.240596,1.329219 2.5542645,2.546652 0 0 0 2.161707,-1.195794 2.6454884,2.8649835 0 0 0 2.162333,-2.815182 2.6454884,2.8649835 0 0 0 -0.730797,-1.975086 2.463041,2.4557004 0 0 0 0.183463,-0.926269 2.463041,2.4557004 0 0 0 -1.731486,-2.344713 2.5801973,2.7011328 0 0 0 -2.06343,-1.084005 z"
       id="path3771-2-9-6-3" />
    <path
       style="fill:#ffffff;stroke-width:0.01645624"
       d="m 62.893927,69.762391 c -0.148807,0.208344 0.03927,0.422106 0.169439,0.548573 0.190452,-0.172494 0.549041,-0.350916 0.752756,-0.409443 -0.270512,-0.224611 -0.773387,-0.347476 -0.922195,-0.13913 z"
       id="path3721-56-1-1-4"
       inkscape:connector-curvature="0"
       sodipodi:nodetypes="zccz" />
    <ellipse
       id="path3719-3-9-5-4"
       cx="65.045601"
       cy="81.514671"
       style="fill:#ffffff;fill-opacity:1;stroke-width:0.01745253"
       rx="0.49938825"
       ry="0.49789992" />
    <path
       style="fill:#ffffff;stroke-width:0.01645624"
       d="m 67.161563,69.762391 c 0.148809,0.208344 -0.03927,0.422106 -0.169438,0.548573 -0.190452,-0.172494 -0.54904,-0.350916 -0.752757,-0.409443 0.270514,-0.224611 0.773388,-0.347476 0.922195,-0.13913 z"
       id="path3721-56-1-1-4-8"
       inkscape:connector-curvature="0"
       sodipodi:nodetypes="zccz" />
    <path
       style="fill:#7fc5be;fill-opacity:1;stroke:#000000;stroke-width:0;stroke-miterlimit:4;stroke-dasharray:none;stroke-opacity:1"
       d="m 65.305794,78.813862 a 1.8215172,2.3666293 38.67251 0 0 2.734237,-1.174243 1.8215172,2.3666293 38.67251 0 0 -0.201486,-2.778237 1.824151,2.6509072 36.364658 0 1 -0.397035,2.451379 1.824151,2.6509072 36.364658 0 1 -2.135716,1.501101 z"
       id="path5149-3"
       inkscape:connector-curvature="0" />
    <path
       style="fill:#7fc5be;fill-opacity:1;stroke:#000000;stroke-width:0;stroke-miterlimit:4;stroke-dasharray:none;stroke-opacity:1"
       d="m 64.093787,72.008579 a 1.050842,1.5796733 70.965511 0 0 -2.041845,0.605497 1.050842,1.5796733 70.965511 0 0 0.150463,1.432598 1.0908844,1.7069379 63.939895 0 1 0.296494,-1.264052 1.0908844,1.7069379 63.939895 0 1 1.594888,-0.774043 z"
       id="path5149-3-5"
       inkscape:connector-curvature="0" />
  </g>
</svg>
